<svg width="87" height="37" viewBox="0 0 87 37" fill="none" xmlns="http://www.w3.org/2000/svg">
<path d="M29.0066 13.776C29.8466 13.776 30.2666 13.884 30.2666 14.1C30.2666 14.34 29.8466 14.532 29.0066 14.676C28.1666 14.82 27.4466 14.892 26.8466 14.892C25.1666 21.084 23.9786 24.924 23.2826 26.412C21.5066 30.18 19.5866 32.868 17.5226 34.476C15.4586 36.084 13.4066 36.888 11.3666 36.888C9.23059 36.888 7.56259 36.144 6.36259 34.656C5.90659 34.104 5.67859 33.576 5.67859 33.072C5.70259 32.832 5.77459 32.7 5.89459 32.676C6.08659 32.676 6.31459 32.856 6.57859 33.216C6.98659 33.768 7.33459 34.2 7.62259 34.512C7.93459 34.824 8.37859 35.136 8.95459 35.448C9.55459 35.76 10.1786 35.916 10.8266 35.916C12.5306 35.916 14.1626 35.328 15.7226 34.152C17.2826 32.976 18.6146 31.476 19.7186 29.652C20.8226 27.828 21.7466 25.98 22.4906 24.108C23.2346 22.26 23.7986 20.484 24.1826 18.78C23.1746 20.724 21.2666 22.356 18.4586 23.676C15.6506 24.996 12.8186 25.656 9.96259 25.656C6.93859 25.656 4.53859 24.792 2.76259 23.064C0.986594 21.312 0.0985938 19.152 0.0985938 16.584C0.0985938 15.072 0.362594 13.608 0.890594 12.192C1.41859 10.776 2.13859 9.504 3.05059 8.376C3.98659 7.224 5.07859 6.18 6.32659 5.244C7.57459 4.284 8.90659 3.492 10.3226 2.868C11.7626 2.22 13.2506 1.716 14.7866 1.356C16.3466 0.995999 17.8826 0.815998 19.3946 0.815998C19.7306 0.815998 20.0666 0.827999 20.4026 0.852C22.1306 0.947999 23.5346 1.212 24.6146 1.644C25.7186 2.076 26.4146 2.52 26.7026 2.976C26.8466 3.216 26.9186 3.432 26.9186 3.624C26.9186 3.72 26.8946 3.828 26.8466 3.948C26.7986 4.044 26.7386 4.128 26.6666 4.2C26.6186 4.248 26.5346 4.332 26.4146 4.452C26.2946 4.572 26.2106 4.668 26.1626 4.74C26.0906 4.836 26.0066 4.968 25.9106 5.136C25.8146 5.28 25.7186 5.424 25.6226 5.568C25.5506 5.712 25.4666 5.856 25.3706 6C25.2746 6.12 25.1786 6.228 25.0826 6.324C25.0106 6.396 24.9386 6.432 24.8666 6.432C24.8186 6.432 24.7706 6.42 24.7226 6.396C24.6986 6.372 24.6746 6.336 24.6506 6.288V6.252C24.6506 6.084 24.7346 5.832 24.9026 5.496C25.0706 5.136 25.1546 4.836 25.1546 4.596C25.1546 4.236 24.9986 3.84 24.6866 3.408C23.9426 2.376 22.3946 1.752 20.0426 1.536C19.7546 1.512 19.4426 1.5 19.1066 1.5C18.5066 1.5 17.8586 1.536 17.1626 1.608C16.4906 1.68 15.7346 1.824 14.8946 2.04C14.0786 2.232 13.2506 2.484 12.4106 2.796C11.5946 3.084 10.7546 3.48 9.89059 3.984C9.02659 4.464 8.22259 5.016 7.47859 5.64C6.73459 6.24 6.01459 6.984 5.31859 7.872C4.62259 8.736 4.03459 9.672 3.55459 10.68C2.59459 12.696 2.11459 14.64 2.11459 16.512C2.11459 18.864 2.97859 20.784 4.70659 22.272C6.43459 23.736 8.40259 24.468 10.6106 24.468C14.1866 24.468 17.1026 23.712 19.3586 22.2C21.6386 20.664 23.5466 18.288 25.0826 15.072C23.0426 15.192 19.7786 15.252 15.2906 15.252C14.8826 15.252 14.5466 15.132 14.2826 14.892C14.0426 14.628 13.9226 14.34 13.9226 14.028C13.9226 13.716 14.1626 13.44 14.6426 13.2C15.1466 12.96 15.5786 12.84 15.9386 12.84C15.9626 12.84 15.9866 12.84 16.0106 12.84C16.1546 12.84 16.2386 12.888 16.2626 12.984C16.2626 13.008 16.2506 13.032 16.2266 13.056C16.1066 13.2 16.0226 13.32 15.9746 13.416C15.9506 13.512 15.9986 13.584 16.1186 13.632C16.3826 13.632 17.1506 13.656 18.4226 13.704C19.6946 13.728 21.1946 13.752 22.9226 13.776C24.6746 13.776 26.1146 13.776 27.2426 13.776C28.0106 13.776 28.5986 13.776 29.0066 13.776ZM41.5982 13.272C42.0542 13.344 42.2822 13.476 42.2822 13.668C42.2822 13.86 42.1022 14.052 41.7422 14.244C41.3822 14.412 41.0582 14.496 40.7702 14.496C40.7702 17.304 40.0382 19.704 38.5742 21.696C37.1102 23.688 35.6582 24.684 34.2182 24.684C32.8262 24.684 32.1302 23.676 32.1302 21.66C32.1302 21.108 32.1782 20.556 32.2742 20.004C32.3942 19.38 32.6102 18.576 32.9222 17.592C33.2342 16.608 33.6422 15.54 34.1462 14.388C34.6502 13.236 35.2622 12.264 35.9822 11.472C36.7262 10.656 37.4702 10.248 38.2142 10.248H38.4662C38.4662 9.912 38.5622 9.624 38.7542 9.384C38.9462 9.144 39.2102 9.024 39.5462 9.024C39.8822 9.048 40.1822 9.756 40.4462 11.148C40.7102 12.516 41.0942 13.224 41.5982 13.272ZM39.7622 14.208C39.5462 14.088 39.2822 13.668 38.9702 12.948C38.6582 12.204 38.4422 11.832 38.3222 11.832C37.5782 11.832 36.7142 12.936 35.7302 15.144C34.7462 17.328 34.1342 19.056 33.8942 20.328C33.7982 20.88 33.7502 21.384 33.7502 21.84C33.7502 23.016 34.0862 23.604 34.7582 23.604C35.7182 23.604 36.7862 22.632 37.9622 20.688C39.1622 18.72 39.7622 16.56 39.7622 14.208ZM51.7449 1.572C50.4249 4.308 49.0809 7.62 47.7129 11.508C46.3449 15.372 45.3369 18.756 44.6889 21.66C44.6649 21.732 44.6529 21.828 44.6529 21.948C44.6529 22.236 44.7729 22.38 45.0129 22.38C45.1569 22.38 45.5409 22.2 46.1649 21.84C46.8129 21.48 47.2209 21.3 47.3889 21.3C47.5329 21.3 47.6409 21.348 47.7129 21.444C47.7129 21.732 47.1129 22.272 45.9129 23.064C44.7129 23.832 43.8609 24.216 43.3569 24.216C42.9009 24.216 42.6729 24 42.6729 23.568C42.6729 23.328 42.7209 23.076 42.8169 22.812C43.4409 21.108 44.0169 19.416 44.5449 17.736C45.0969 16.056 45.7209 14.064 46.4169 11.76C47.1129 9.432 47.6289 7.716 47.9649 6.612C48.0369 6.396 48.0729 6.18 48.0729 5.964C48.0729 5.868 48.0489 5.784 48.0009 5.712C47.9769 5.616 47.9649 5.532 47.9649 5.46C47.9649 5.388 48.0009 5.244 48.0729 5.028C48.5529 3.516 48.9969 2.508 49.4049 2.004C49.8129 1.5 50.4129 1.248 51.2049 1.248C51.5409 1.248 51.7209 1.356 51.7449 1.572ZM65.1305 0.672C65.2025 0.719999 65.2385 0.827999 65.2385 0.995998C65.2385 1.38 65.0465 2.1 64.6625 3.156C64.3025 4.188 63.7865 5.544 63.1145 7.224C62.4665 8.88 61.9625 10.236 61.6025 11.292C61.6265 11.268 61.6505 11.256 61.6745 11.256C61.7705 11.256 61.8665 11.34 61.9625 11.508C62.0825 11.676 62.1425 11.832 62.1425 11.976C62.1425 12.12 62.0225 12.192 61.7825 12.192C61.4705 12.192 61.3025 12.156 61.2785 12.084C60.7985 13.164 60.1865 14.916 59.4425 17.34C58.7225 19.764 58.3625 21.252 58.3625 21.804C58.3625 22.356 58.5185 22.632 58.8305 22.632C59.1905 22.632 59.6105 22.428 60.0905 22.02C60.5705 21.588 60.9905 21.156 61.3505 20.724C61.7345 20.292 61.9625 20.076 62.0345 20.076C62.1065 20.076 62.1425 20.136 62.1425 20.256C62.1425 20.328 62.1185 20.424 62.0705 20.544C62.0465 20.664 62.0105 20.772 61.9625 20.868C61.9385 20.94 61.9145 20.976 61.8905 20.976C61.3385 21.528 60.5705 22.164 59.5865 22.884C58.6025 23.58 57.8345 23.928 57.2825 23.928C56.8265 23.928 56.5985 23.676 56.5985 23.172C56.5985 21.876 57.0545 19.896 57.9665 17.232C56.9345 18.696 55.6745 20.232 54.1865 21.84C52.7225 23.448 51.5705 24.252 50.7305 24.252C50.2265 24.252 49.9745 23.892 49.9745 23.172C49.9745 22.14 50.3345 20.652 51.0545 18.708C51.7745 16.74 52.6265 14.964 53.6105 13.38C54.6185 11.772 55.4585 10.968 56.1305 10.968H56.2745C56.4425 10.968 56.6345 10.884 56.8505 10.716C57.0905 10.524 57.3425 10.428 57.6065 10.428C57.9665 10.428 58.4705 10.524 59.1185 10.716C59.7905 10.908 60.1505 11.004 60.1985 11.004C60.2225 11.004 60.2345 10.992 60.2345 10.968C61.9625 6.312 62.8505 3.912 62.8985 3.768C62.6345 3.768 62.5025 3.624 62.5025 3.336C62.5025 2.664 62.8625 1.788 63.5825 0.707999C63.6785 0.515999 63.8705 0.419999 64.1585 0.419999C64.4705 0.419999 64.7945 0.503999 65.1305 0.672ZM59.9825 11.796C59.9825 11.532 59.2745 11.4 57.8585 11.4C57.4505 11.4 57.1505 11.424 56.9585 11.472C56.4305 11.616 55.4105 13.068 53.8985 15.828C52.4105 18.588 51.6665 20.604 51.6665 21.876C51.6665 22.26 51.7865 22.452 52.0265 22.452C52.2665 22.452 52.6145 22.26 53.0705 21.876C53.5265 21.492 53.9465 21.084 54.3305 20.652C54.7145 20.22 55.1345 19.752 55.5905 19.248C56.0465 18.72 56.2865 18.432 56.3105 18.384C56.9585 17.664 57.5465 16.824 58.0745 15.864C58.6265 14.88 59.0705 13.968 59.4065 13.128C59.7665 12.288 59.9585 11.844 59.9825 11.796ZM72.7617 12.804C72.9057 13.548 72.9777 14.148 72.9777 14.604C72.9777 15.132 72.7977 15.588 72.4377 15.972C72.0777 16.332 71.6097 16.596 71.0337 16.764C70.4577 16.908 69.9417 17.016 69.4857 17.088C69.0297 17.136 68.5977 17.16 68.1897 17.16C67.9497 17.16 67.6737 17.16 67.3617 17.16C67.0737 17.136 66.9177 17.124 66.8937 17.124C66.1017 19.14 65.7057 20.724 65.7057 21.876C65.7057 22.836 66.0657 23.316 66.7857 23.316C67.2897 23.316 67.8777 23.004 68.5497 22.38C69.2217 21.732 69.8097 21.096 70.3137 20.472C70.8177 19.824 71.1177 19.5 71.2137 19.5C71.3817 19.5 71.4657 19.596 71.4657 19.788C71.4657 20.46 70.8057 21.396 69.4857 22.596C68.1657 23.772 67.1337 24.36 66.3897 24.36C65.7897 24.36 65.2377 24.18 64.7337 23.82C64.2537 23.436 64.0137 22.812 64.0137 21.948C64.0137 21.684 64.0497 21.372 64.1217 21.012C64.2897 20.1 64.5057 19.212 64.7697 18.348C65.0577 17.484 65.2137 16.956 65.2377 16.764C64.8777 16.668 64.6977 16.476 64.6977 16.188C64.6977 15.924 64.9017 15.792 65.3097 15.792H65.5617C66.5217 13.896 67.0737 12.804 67.2177 12.516C67.8897 11.244 69.1737 10.608 71.0697 10.608C71.8857 10.608 72.4497 11.34 72.7617 12.804ZM71.4657 14.532C71.4657 13.932 71.4057 13.416 71.2857 12.984C71.1657 12.552 71.0217 12.252 70.8537 12.084C70.7097 11.916 70.5537 11.832 70.3857 11.832C69.9057 11.832 69.3297 12.348 68.6577 13.38C68.0097 14.412 67.5297 15.324 67.2177 16.116C67.2657 16.116 67.4577 16.128 67.7937 16.152C68.1297 16.176 68.4177 16.188 68.6577 16.188C69.6417 16.188 70.3497 16.08 70.7817 15.864C71.2137 15.648 71.4417 15.204 71.4657 14.532ZM86.6592 10.608C85.4352 12.648 84.2952 14.988 83.2392 17.628C82.1832 20.268 81.6552 22.248 81.6552 23.568C81.6552 24 81.7512 24.216 81.9432 24.216C82.0152 24.216 82.2432 24.096 82.6272 23.856C83.0352 23.616 83.2752 23.496 83.3472 23.496C83.4912 23.496 83.5632 23.568 83.5632 23.712C83.5632 24 83.2992 24.324 82.7712 24.684C82.2432 25.044 81.7152 25.224 81.1872 25.224C80.4912 25.224 80.1432 24.708 80.1432 23.676C80.1432 22.74 80.3352 21.648 80.7192 20.4C81.1032 19.152 81.7032 17.556 82.5192 15.612C83.3352 13.668 83.7432 12.684 83.7432 12.66C83.8632 12.348 83.9232 12.108 83.9232 11.94C83.9232 11.82 83.8872 11.76 83.8152 11.76C83.6952 11.76 83.4312 11.976 83.0232 12.408C81.9912 13.56 80.5152 15.528 78.5952 18.312C76.6752 21.096 75.6912 22.812 75.6432 23.46C75.6192 23.628 75.3912 23.856 74.9592 24.144C74.5272 24.456 74.1672 24.612 73.8792 24.612C73.7112 24.612 73.6152 24.528 73.5912 24.36C73.6392 24.432 74.0832 23.232 74.9232 20.76C75.7872 18.288 76.3992 16.5 76.7592 15.396C76.8552 15.108 76.9032 14.892 76.9032 14.748C76.9032 14.652 76.8792 14.568 76.8312 14.496C76.8072 14.4 76.7952 14.328 76.7952 14.28C76.7952 14.184 76.8312 14.028 76.9032 13.812C77.4552 12.276 77.9232 11.268 78.3072 10.788C78.6912 10.284 79.2792 10.032 80.0712 10.032C80.3832 10.032 80.5632 10.14 80.6112 10.356C78.6432 14.388 77.4672 17.268 77.0832 18.996C81.0432 12.612 84.0792 9.42 86.1912 9.42C86.6712 9.42 86.9112 9.576 86.9112 9.888C86.9112 10.104 86.8272 10.344 86.6592 10.608Z" fill="#FED136"/>
</svg>
